# xmcd
#
# Track frame offsets:
#	150
#	22566
#	37493
#	56479
#	73084
#	88414
#	102117
#	115590
#	135087
#	150202
#
# Disc length: 2222 seconds
# Revision: 0
# Processed by: cddbd v1.5.2PL0 Copyright (c) Steve Scherf et al.
# Submitted via: dBpowerAMP V12.0
#
DISCID=7308ac0a
DTITLE=Trainman Blues - Trainman Blues
DYEAR=2018
DGENRE=Blues
TTITLE0=Out of Dust
TTITLE1=Wholesome Treat
TTITLE2=Skulls, Crosses and Bones
TTITLE3=The Wind Will Blow Me Home
TTITLE4=Hard Times
TTITLE5=Walking Blues
TTITLE6=Sit and Practice
TTITLE7=Pick Up the Pieces
TTITLE8=With Open Hands
TTITLE9=Tree of Life
EXTD=
EXTT0=
EXTT1=
EXTT2=
EXTT3=
EXTT4=
EXTT5=
EXTT6=
EXTT7=
EXTT8=
EXTT9=
PLAYORDER=
